<svg width="255" height="136" viewBox="0 0 255 136" fill="none" xmlns="http://www.w3.org/2000/svg">
<path d="M36 50C36 43.3726 41.3843 38 48.0261 38H84.1046C90.7464 38 96.1307 43.3726 96.1307 50V86C96.1307 92.6274 90.7464 98 84.1046 98H48.0261C41.3843 98 36 92.6274 36 86V50Z" fill="url(#paint0_linear)"/>
<path d="M60.0825 38H54.053V51.8352H60.0825V38Z" fill="white"/>
<path d="M70.2036 80.516H62.236C57.7138 80.516 54.053 76.8555 54.053 72.3338V66.5201H60.0826V72.2907C60.0826 73.4965 61.0301 74.4439 62.236 74.4439H70.2036C71.4095 74.4439 72.357 73.4965 72.357 72.2907V64.3669C72.357 63.1611 71.4095 62.2137 70.2036 62.2137H36V56.1847H70.2036C74.7258 56.1847 78.3866 59.8451 78.3866 64.3669V72.3338C78.3866 76.8555 74.7258 80.516 70.2036 80.516Z" fill="white"/>
<path d="M190.775 86.2185C190.517 85.9638 190.414 85.7091 190.414 85.3526C190.414 84.9961 190.517 84.6904 190.775 84.3848L200.483 71.6L191.498 59.5791C191.292 59.2735 191.137 58.9679 191.137 58.6114C191.137 58.2548 191.24 58.0001 191.498 57.7455C191.757 57.4908 192.015 57.3889 192.376 57.3889H197.385C197.798 57.3889 198.107 57.4908 198.314 57.6436C198.521 57.7964 198.727 58.0511 198.985 58.3567L205.336 66.7101L211.635 58.3567C211.687 58.3058 211.79 58.1529 212.048 57.8473C212.307 57.5417 212.668 57.3889 213.236 57.3889H218.09C218.451 57.3889 218.709 57.4908 218.967 57.7455C219.174 58.0001 219.329 58.2548 219.329 58.5604C219.329 58.917 219.225 59.2735 218.967 59.5791L209.88 71.6509L219.639 84.3848C219.845 84.6904 220 84.9961 220 85.3526C220 85.7091 219.897 85.9638 219.639 86.2185C219.38 86.4732 219.122 86.5751 218.761 86.5751H213.546C212.926 86.5751 212.41 86.2694 211.997 85.6582L205.181 76.7954L198.314 85.6582C197.901 86.2694 197.385 86.5751 196.765 86.5751H191.705C191.292 86.5751 190.982 86.4732 190.775 86.2185Z" fill="#283049"/>
<path d="M149.345 69.9692C149.241 65.955 147.988 62.801 145.9 60.3307C143.813 57.8605 140.838 56.6253 136.976 56.6253C133.27 56.6253 130.348 57.8605 128.208 60.3822V47.7737C128.208 46.9502 127.373 46.4356 126.642 46.7444L120.484 49.2661V85.3419C120.484 85.7021 120.64 86.0624 120.901 86.3197C121.162 86.577 121.475 86.7314 121.893 86.7314H126.486C126.903 86.7314 127.268 86.577 127.529 86.3197C127.79 86.0624 127.947 85.7536 127.947 85.3419V83.2319C130.035 85.908 133.114 87.246 137.08 87.246C140.942 87.246 143.917 86.0109 146.005 83.5921C148.092 81.1734 149.188 77.8797 149.345 73.8141C149.475 72.5324 149.345 71.2395 149.345 69.9692ZM141.308 73.6083C141.047 78.6002 138.855 81.0704 134.784 81.0704C132.592 81.0704 130.974 80.35 129.878 78.9604C128.782 77.5709 128.208 75.8726 128.156 73.8656C128.103 73.4024 128.103 72.6819 128.103 71.7041C128.103 70.6748 128.103 69.9544 128.156 69.4912C128.208 67.587 128.834 65.9917 129.93 64.6536C131.026 63.3156 132.644 62.6466 134.732 62.6466C138.855 62.6466 140.995 65.1168 141.255 70.1087C141.308 70.469 141.308 71.0351 141.308 71.807C141.36 72.6819 141.36 73.248 141.308 73.6083Z" fill="#283049"/>
<path d="M185.01 80.0785H164.576L170.093 72.7327C170.809 71.808 170.145 70.4724 168.97 70.4724H161.818L154.972 79.3593C154.768 79.6675 154.564 79.9757 154.359 80.2839C154.206 80.5922 154.104 81.0031 154.104 81.4654V85.4722C154.104 85.8832 154.206 86.2428 154.462 86.4996C154.717 86.7565 155.024 86.9106 155.432 86.9106H181.639C182.354 86.9106 183.018 86.551 183.427 85.9859L186.083 82.3901C186.798 81.3627 186.134 80.0785 185.01 80.0785Z" fill="#283049"/>
<path d="M154.479 53.3465H175.126L169.551 60.5424C168.828 61.4482 169.499 62.7565 170.687 62.7565H177.913L184.83 54.051C185.036 53.7491 185.243 53.4471 185.449 53.1452C185.604 52.8433 185.707 52.4407 185.707 51.9878V48.0628C185.707 47.6602 185.604 47.308 185.346 47.0564C185.088 46.8048 184.778 46.6538 184.365 46.6538H157.886C157.163 46.6538 156.492 47.0061 156.079 47.5596L153.395 51.0821C152.672 52.0382 153.343 53.3465 154.479 53.3465Z" fill="#283049"/>
<defs>
<linearGradient id="paint0_linear" x1="92.2222" y1="94.1" x2="44.2223" y2="45.9955" gradientUnits="userSpaceOnUse">
<stop offset="0.159375" stop-color="#003CDA"/>
<stop offset="1" stop-color="#33DFCC"/>
</linearGradient>
</defs>
</svg>
