<?xml version="1.0" encoding="UTF-8"?>
<svg width="85px" height="100px" viewBox="0 0 85 100" version="1.1" xmlns="http://www.w3.org/2000/svg" xmlns:xlink="http://www.w3.org/1999/xlink">
    <!-- Generator: Sketch 59.1 (86144) - https://sketch.com -->
    <title>NON CUSTODIAL FINAL</title>
    <desc>Created with Sketch.</desc>
    <defs>
        <linearGradient x1="50%" y1="0%" x2="50%" y2="100%" id="linearGradient-1">
            <stop stop-color="#7F61FA" offset="0%"></stop>
            <stop stop-color="#2611C9" offset="100%"></stop>
        </linearGradient>
        <path d="M515.135519,334.610734 L130.135519,1001.4503 C636.981953,1364.89985 1167.72842,1374.95333 1722.37493,1031.61073 L1310.14684,793.610734 L515.135519,334.610734 Z" id="path-2"></path>
        <linearGradient x1="50%" y1="2.54922327%" x2="50%" y2="100%" id="linearGradient-4">
            <stop stop-color="#4762E2" offset="0%"></stop>
            <stop stop-color="#2611C9" offset="100%"></stop>
        </linearGradient>
        <path d="M181.715739,-1159.00897 L-203.284261,-492.169411 C303.562173,-128.719853 834.308644,-118.666373 1388.95515,-462.008972 L976.727059,-700.008972 L181.715739,-1159.00897 Z" id="path-5"></path>
        <linearGradient x1="100%" y1="50%" x2="0%" y2="50%" id="linearGradient-7">
            <stop stop-color="#FE9A8B" offset="0%"></stop>
            <stop stop-color="#FD868C" offset="40.8502073%"></stop>
            <stop stop-color="#F9748F" offset="73.1505102%"></stop>
            <stop stop-color="#F78CA0" offset="100%"></stop>
        </linearGradient>
        <linearGradient x1="100%" y1="50%" x2="0%" y2="50%" id="linearGradient-8">
            <stop stop-color="#FE9A8B" offset="0%"></stop>
            <stop stop-color="#FD868C" offset="40.8502073%"></stop>
            <stop stop-color="#F9748F" offset="73.1505102%"></stop>
            <stop stop-color="#F78CA0" offset="100%"></stop>
        </linearGradient>
    </defs>
    <g id="Page-1" stroke="none" stroke-width="1" fill="none" fill-rule="evenodd">
        <g id="Blue-Customer-Service-Page" transform="translate(-1060.000000, -868.000000)">
            <rect id="Rectangle-23" fill="none" x="0" y="0" width="1440" height="1945"></rect>
            <g id="Fill-5" transform="translate(0.000000, 890.000000)">
                <mask id="mask-3" fill="white">
                    <use xlink:href="#path-2"></use>
                </mask>
                <use id="Mask" fill="url(#linearGradient-1)" opacity="0.0458559783" transform="translate(926.255226, 808.201405) scale(-1, -1) rotate(-30.000000) translate(-926.255226, -808.201405) " xlink:href="#path-2"></use>
                <mask id="mask-6" fill="white">
                    <use xlink:href="#path-5"></use>
                </mask>
                <use id="Mask" fill="url(#linearGradient-4)" transform="translate(592.835445, -685.418301) rotate(-30.000000) translate(-592.835445, 685.418301) " xlink:href="#path-5"></use>
            </g>
            <g id="Fill-5" transform="translate(257.000000, 808.000000)" opacity="0.125849185">
                <path d="M647.654413,187.114096 C637.602479,185.706629 634.488318,177.885122 640.748125,169.768313 L668.371932,133.879808 C674.60408,125.774339 684.890132,112.469823 691.116785,104.37749 L718.727647,68.4834087 C724.994905,60.3853117 733.2215,61.5181297 737.028526,71.079829 L784.467345,190.226836 C788.285546,199.816603 783.154487,206.458514 773.087654,205.013623 L728.661807,198.675306 C718.643029,197.243363 702.136103,194.923576 692.093204,193.457989 L647.654413,187.114096 Z" id="Fill-5-Copy-3" fill="url(#linearGradient-7)" style="mix-blend-mode: color-burn;" transform="translate(711.623494, 134.148279) rotate(-128.000000) translate(-711.623494, -134.148279) "></path>
                <path d="M711.653059,89.3818176 C705.872724,88.5724579 704.081935,84.0747231 707.681619,79.4071762 L723.566607,58.7695974 C727.150385,54.1085716 733.065349,46.4578488 736.645967,41.8043768 L752.523512,21.1635916 C756.12748,16.5068048 760.858159,17.1582284 763.047378,22.6566554 L790.326931,91.1717895 C792.522576,96.6863567 789.571976,100.505767 783.783073,99.6748874 L758.236121,96.0300569 C752.474852,95.2066223 742.982594,93.8726357 737.207454,93.0298545 L711.653059,89.3818176 Z" id="Fill-5-Copy-3" fill="url(#linearGradient-8)" style="mix-blend-mode: color-burn;" transform="translate(748.438290, 58.923981) rotate(-128.000000) translate(-748.438290, -58.923981) "></path>
            </g>
            <g id="Group-10" transform="translate(1060.000000, 868.000000)" fill="#FAC855" fill-rule="nonzero">
                <path d="M49.5833333,31.7864583 C49.5833333,27.890625 46.3958333,24.703125 42.5,24.703125 C38.6041667,24.703125 35.4166667,27.890625 35.4166667,31.7864583 L35.4166667,38.8697917 L49.5833333,38.8697917 L49.5833333,31.7864583 Z" id="Path"></path>
                <path d="M0,17.6197917 L0,45.953125 C0,75.3489583 15.5833333,84.203125 36.8333333,96.2447917 L40.7291667,98.3697917 C41.4375,99.078125 41.7916667,99.078125 42.5,99.078125 C43.2083333,99.078125 43.5625,99.078125 44.2708333,98.7239583 L48.1666667,96.5989583 C69.4166667,84.203125 85,75.3489583 85,45.953125 L85,17.6197917 C85,16.203125 83.9375,14.7864583 82.5208333,14.4322917 L43.5625,0.265625 C42.8541667,-0.0885416667 41.7916667,-0.0885416667 41.0833333,0.265625 L2.125,14.4322917 C1.0625,14.7864583 0,16.203125 0,17.6197917 Z M21.25,49.4947917 C21.25,44.890625 24.0833333,40.9947917 28.3333333,39.578125 L28.3333333,31.7864583 C28.3333333,23.9947917 34.7083333,17.6197917 42.5,17.6197917 C50.2916667,17.6197917 56.6666667,23.9947917 56.6666667,31.7864583 L56.6666667,39.578125 C60.9166667,40.9947917 63.75,44.890625 63.75,49.4947917 L63.75,60.1197917 C63.75,71.8072917 54.1875,81.3697917 42.5,81.3697917 C30.8125,81.3697917 21.25,71.8072917 21.25,60.1197917 L21.25,49.4947917 Z" id="Shape"></path>
                <path d="M42.5,49.4947917 C40.375,49.4947917 38.9583333,50.9114583 38.9583333,53.0364583 L38.9583333,60.1197917 C38.9583333,62.2447917 40.375,63.6614583 42.5,63.6614583 C44.625,63.6614583 46.0416667,62.2447917 46.0416667,60.1197917 L46.0416667,53.0364583 C46.0416667,50.9114583 44.625,49.4947917 42.5,49.4947917 Z" id="Path"></path>
            </g>
        </g>
    </g>
</svg>