<?xml version="1.0" encoding="UTF-8"?>
<svg width="117px" height="100px" viewBox="0 0 117 100" version="1.1" xmlns="http://www.w3.org/2000/svg" xmlns:xlink="http://www.w3.org/1999/xlink">
    <!-- Generator: Sketch 59.1 (86144) - https://sketch.com -->
    <title>SAVE GAS FINAL</title>
    <desc>Created with Sketch.</desc>
    <defs>
        <linearGradient x1="50%" y1="0%" x2="50%" y2="100%" id="linearGradient-1">
            <stop stop-color="#7F61FA" offset="0%"></stop>
            <stop stop-color="#2611C9" offset="100%"></stop>
        </linearGradient>
        <path d="M515.135519,334.610734 L130.135519,1001.4503 C636.981953,1364.89985 1167.72842,1374.95333 1722.37493,1031.61073 L1310.14684,793.610734 L515.135519,334.610734 Z" id="path-2"></path>
        <linearGradient x1="50%" y1="2.54922327%" x2="50%" y2="100%" id="linearGradient-4">
            <stop stop-color="#4762E2" offset="0%"></stop>
            <stop stop-color="#2611C9" offset="100%"></stop>
        </linearGradient>
        <path d="M181.715739,-1159.00897 L-203.284261,-492.169411 C303.562173,-128.719853 834.308644,-118.666373 1388.95515,-462.008972 L976.727059,-700.008972 L181.715739,-1159.00897 Z" id="path-5"></path>
    </defs>
    <g id="Page-1" stroke="none" stroke-width="1" fill="none" fill-rule="evenodd">
        <g id="Blue-Customer-Service-Page" transform="translate(-667.000000, -873.000000)">
            <rect id="Rectangle-23" fill="none" x="0" y="0" width="1440" height="1945"></rect>
            <g id="Fill-5" transform="translate(0.000000, 890.000000)">
                <mask id="mask-3" fill="none">
                    <use xlink:href="#path-2"></use>
                </mask>
                <use id="Mask" fill="url(#linearGradient-1)" opacity="0.0458559783" transform="translate(926.255226, 808.201405) scale(-1, -1) rotate(-30.000000) translate(-926.255226, -808.201405) " xlink:href="#path-2"></use>
                <mask id="mask-6" fill="none">
                    <use xlink:href="#path-5"></use>
                </mask>
                <use id="Mask" fill="url(#linearGradient-4)" transform="translate(592.835445, -685.418301) rotate(-30.000000) translate(-592.835445, 685.418301) " xlink:href="#path-5"></use>
            </g>
            <g id="Fill-5" transform="translate(257.000000, 808.000000)"></g>
            <g id="Group-4" transform="translate(690.000000, 880.000000)" fill-rule="nonzero">
                <path d="M81.7224405,14.0624941 L65.6928572,0.704339324 C64.4047024,-0.370303533 62.4891667,-0.19524401 61.4175596,1.09291075 C60.3439286,2.38106551 60.5179762,4.29457742 61.806131,5.36820837 L75.1774405,16.5123155 C73.7749405,17.6254108 72.8571429,19.3233869 72.8571429,21.2500536 C72.8571429,24.5984465 75.5801786,27.3214822 78.9285715,27.3214822 L78.9285715,54.6429108 C78.9285715,57.9913036 76.2055358,60.7143393 72.8571429,60.7143393 C69.50875,60.7143393 66.7857143,57.9913036 66.7857143,54.6429108 L66.7857143,39.4643393 C66.7857143,34.442256 62.7006548,30.3571965 57.6785715,30.3571965 L54.6428572,30.3571965 L54.6428572,12.1429108 C54.6428572,5.44713694 49.1957739,4.97379915e-14 42.5,4.97379915e-14 L18.2142858,4.97379915e-14 C11.5185119,4.97379915e-14 6.07142862,5.44713694 6.07142862,12.1429108 L6.07142862,71.9383869 L0.510000044,80.2805298 C-0.11130948,81.2114822 -0.168988051,82.4095774 0.359226235,83.3961846 C0.88744052,84.3838036 1.91654766,85.0000536 3.03571433,85.0000536 L57.6785715,85.0000536 C58.7977381,85.0000536 59.8268453,84.3838036 60.3560715,83.3961846 C60.8832739,82.4085655 60.8255953,81.2114822 60.2052977,80.2805298 L54.6428572,71.9383869 L54.6428572,36.428625 L57.6785715,36.428625 C59.3522619,36.428625 60.7142858,37.7906488 60.7142858,39.4643393 L60.7142858,54.6429108 C60.7142858,61.3386846 66.1613691,66.7857679 72.8571429,66.7857679 C79.5529167,66.7857679 85,61.3386846 85,54.6429108 L85,21.0577917 C85,18.3458869 83.8049405,15.7968988 81.7224405,14.0624941 Z M44.0178572,30.3571965 L16.6964286,30.3571965 C15.8585715,30.3571965 15.1785715,29.6771965 15.1785715,28.8393393 L15.1785715,13.6607679 C15.1785715,12.8229108 15.8585715,12.1429108 16.6964286,12.1429108 L44.0178572,12.1429108 C44.8557143,12.1429108 45.5357143,12.8229108 45.5357143,13.6607679 L45.5357143,28.8393393 C45.5357143,29.6771965 44.8557143,30.3571965 44.0178572,30.3571965 Z" id="Shape" fill="#536DFE"></path>
                <g id="Ethereum" transform="translate(23.273810, 40.476244)" fill="#FFFFFF">
                    <path d="M14.8194857,12.6714008 L7.61179092,24.2330947 L0.448908209,12.7430088 L7.59860641,15.8838345 L14.8194857,12.6714008 Z M1.22696123,12.3283899 L7.61179092,13.311285 L13.8383088,12.3531433 L7.60136757,15.1023313 L1.22696123,12.3283899 Z" id="Combined-Shape"></path>
                    <path d="M14.8182752,12.6715487 L7.61179092,24.2330947 L7.61179092,15.8779936 L14.8182752,12.6715487 Z M7.61179092,0.0712018437 L14.9595788,11.8582239 L7.61179092,15.0973785 L7.61179092,0.0712018437 Z" id="Combined-Shape"></path>
                    <polygon id="Combined-Shape" points="7.61179092 0.0712018437 14.9596377 11.8582239 7.60136757 15.1023313 0.239333773 11.8988901"></polygon>
                    <polygon id="Combined-Shape" points="7.61179092 0.0712018437 14.9595788 11.8582239 7.61179092 15.0973785"></polygon>
                    <polygon id="Combined-Shape" points="7.61179092 9.67823709 14.9121686 11.8786344 7.60136757 15.1023313 0.242203976 11.8998516"></polygon>
                </g>
            </g>
        </g>
    </g>
</svg>